<?xml version="1.0" encoding="utf-8"?>
<!-- Generator: Adobe Illustrator 26.0.3, SVG Export Plug-In . SVG Version: 6.00 Build 0)  -->
<svg version="1.1" id="Layer_1" xmlns="http://www.w3.org/2000/svg" xmlns:xlink="http://www.w3.org/1999/xlink" x="0px" y="0px"
	 viewBox="0 0 713.8 1190.6" style="enable-background:new 0 0 713.8 1190.6;" xml:space="preserve">
<style type="text/css">
	.st0{fill:#231F20;}
	.st1{fill:#101820;}
	.st2{fill:#4F57A5;}
	.st3{fill:#0075C9;}
	.st4{fill:#FFFFFF;}
</style>
<g>
	<path class="st0" d="M580.6,1064.1"/>
	<path class="st1" d="M355.4,27.5c-171,0-309.7,138.7-309.7,309.7v112.7c2.4-0.1,4.8-0.3,7.2-0.2c234,15.5,332.3,151.6,338.4,338.4
		c4.8,145-80.7,234.8-171.5,281.5H44.9v72.5h441.6l0.6-61.7c33.4-11,83.3-34.9,121.8-85.5c20.3-28.8,35.7-61.2,45.2-96.1
		c6.9-27.3,11-58.4,11-93.9V337.2C665.1,166.2,526.4,27.5,355.4,27.5z"/>
	<path class="st2" d="M355,273.6"/>
	<path class="st2" d="M355,241.7"/>
	<rect x="417.2" y="1015.7" class="st3" width="34.2" height="126.4"/>
	<rect x="359.2" y="1015.7" class="st3" width="34.2" height="126.4"/>
	<path class="st3" d="M44.9,1069.4h174.9c90.9-46.7,176.3-136.5,171.5-281.5c-6.2-186.8-104.5-323-338.4-338.4
		c-2.4-0.2-4.8,0.1-7.2,0.2"/>
	<rect x="475.1" y="1015.7" class="st3" width="34.2" height="126.4"/>
	<path class="st3" d="M589.7,234.5c-6-66.6-61.9-118.7-130.1-118.7c-42.8,0-80.8,20.6-104.6,52.4c-0.1-0.1-0.2-0.2-0.3-0.4l0,0l0,0
		c-23.8-31.6-61.7-52-104.3-52c-68.1,0-124,52.2-130.1,118.7l-0.6,0.2v105.6c0,0,6.8,58.1,87,78.4c0,0,118.4,29.3,148.3,78.5l0,0
		c29.9-49.2,148.3-78.5,148.3-78.5c80.2-20.3,87-78.4,87-78.4V234.7L589.7,234.5z"/>
	<circle class="st4" cx="234.1" cy="263.8" r="55.9"/>
	<circle class="st4" cx="479.4" cy="263.8" r="55.9"/>
</g>
</svg>
